<svg width="116" height="106" viewBox="0 0 116 106" fill="none" xmlns="http://www.w3.org/2000/svg" xmlns:xlink="http://www.w3.org/1999/xlink">
<path d="M114.74,98.685L0.953,98.685L0.953,105.084L114.74,105.084L114.74,98.685Z" fill="#FFFFFF"/>
<path d="M57.853,41.023C61.386,41.023 64.251,38.192 64.251,34.699C64.251,31.206 61.386,28.375 57.853,28.375C54.32,28.375 51.456,31.206 51.456,34.699C51.456,38.192 54.32,41.023 57.853,41.023Z" transform="rotate(-161.782 57.853 34.699)" fill="#FFFFFF"/>
<path d="M7.275,92.286C7.275,64.016 29.919,41.096 57.848,41.096C85.778,41.096 108.422,64.012 108.422,92.286L7.275,92.286ZM100.693,90.153C100.693,90.153 94.371,58.16 75.409,51.761C88.053,64.56 88.053,90.153 88.053,90.153L100.693,90.153Z" fill="#FFFFFF"/>
<path d="M86.852,24.342L93.1,15.266L88.709,25.396L86.852,24.342Z" fill="#FFFFFF"/>
<path d="M25.221,25.521L19.973,16.702L26.918,24.218L25.221,25.521Z" fill="#FFFFFF"/>
<path d="M55.573,13.444L56.725,0.172L57.705,13.457L55.573,13.444Z" fill="#FFFFFF"/>
</svg>
