<svg width="48" height="34" viewBox="0 0 48 34" fill="none" xmlns="http://www.w3.org/2000/svg" xmlns:xlink="http://www.w3.org/1999/xlink">
<path d="M41.688,0.634C43.695,1.173 45.283,2.761 45.822,4.767C46.81,8.422 46.84,16 46.84,16C46.84,16 46.84,23.608 45.852,27.232C45.312,29.239 43.725,30.827 41.718,31.366C38.094,32.354 23.507,32.354 23.507,32.354C23.507,32.354 8.92,32.354 5.295,31.366C3.288,30.827 1.701,29.239 1.162,27.232C0.173,23.578 0.173,16 0.173,16C0.173,16 0.173,8.422 1.132,4.797C1.671,2.791 3.258,1.203 5.265,0.664C8.89,-0.325 23.477,-0.354 23.477,-0.354C23.477,-0.354 38.064,-0.354 41.688,0.634ZM30.935,16L18.834,23.009L18.834,8.991L30.935,16Z" clip-rule="evenodd" fill-rule="evenodd" fill="#FFFFFF"/>
</svg>
