<svg width="48" height="48" viewBox="0 0 48 48" fill="none" xmlns="http://www.w3.org/2000/svg" xmlns:xlink="http://www.w3.org/1999/xlink">
<path d="M46.839,24.142C46.839,11.176 36.394,0.667 23.506,0.667C10.618,0.667 0.173,11.176 0.173,24.142C0.173,35.861 8.703,45.573 19.86,47.334L19.86,30.929L13.936,30.929L13.936,24.14L19.86,24.14L19.86,18.97C19.86,13.087 23.343,9.835 28.674,9.835C31.225,9.835 33.897,10.294 33.897,10.294L33.897,16.072L30.953,16.072C28.055,16.072 27.152,17.882 27.152,19.74L27.152,24.142L33.623,24.142L32.589,30.927L27.152,30.927L27.152,47.334C38.309,45.573 46.839,35.861 46.839,24.142Z" fill="#FFFFFF"/>
</svg>
