<svg width="112" height="112" viewBox="0 0 112 112" fill="none" xmlns="http://www.w3.org/2000/svg" xmlns:xlink="http://www.w3.org/1999/xlink">
<path d="M112,48.149C111.992,39.969 109.093,32.126 103.938,26.342C98.783,20.557 91.795,17.304 84.505,17.295C83.395,17.297 82.287,17.373 81.185,17.523C79.046,12.018 75.522,7.333 71.045,4.043C66.568,0.753 61.333,-1 55.981,-1C50.629,-1 45.394,0.753 40.917,4.043C36.44,7.333 32.916,12.018 30.777,17.523C29.682,17.374 28.581,17.298 27.478,17.295C21.183,17.299 15.081,19.727 10.189,24.173C5.298,28.619 1.914,34.813 0.603,41.722C-0.708,48.63 0.133,55.835 2.985,62.131C5.838,68.428 10.529,73.435 16.276,76.318L16.276,103.001C16.276,105.122 17.027,107.157 18.364,108.657C19.701,110.157 21.514,111 23.404,111L88.578,111C90.469,111 92.282,110.157 93.619,108.657C94.956,107.157 95.707,105.122 95.707,103.001L95.707,76.318C100.554,73.886 104.671,69.932 107.562,64.935C110.453,59.937 111.994,54.107 112,48.149ZM89.597,103.001C89.597,103.304 89.489,103.594 89.298,103.809C89.107,104.023 88.848,104.144 88.578,104.144L23.404,104.144C23.134,104.144 22.875,104.023 22.684,103.809C22.493,103.594 22.386,103.304 22.386,103.001L22.386,78.466C24.065,78.822 25.769,79.002 27.478,79.003L84.505,79.003C86.213,79.002 87.918,78.822 89.597,78.466L89.597,103.001ZM84.505,72.147L76.2,72.147L79.321,58.125C79.419,57.688 79.439,57.234 79.38,56.789C79.322,56.344 79.185,55.916 78.979,55.529C78.773,55.143 78.501,54.806 78.179,54.538C77.857,54.27 77.491,54.075 77.101,53.965C76.712,53.856 76.308,53.833 75.911,53.899C75.514,53.965 75.133,54.118 74.788,54.35C74.444,54.581 74.144,54.886 73.905,55.248C73.666,55.609 73.492,56.02 73.395,56.457L69.897,72.147L59.046,72.147L59.046,57.291C59.046,56.382 58.724,55.51 58.152,54.867C57.579,54.224 56.802,53.863 55.991,53.863C55.181,53.863 54.404,54.224 53.831,54.867C53.258,55.51 52.936,56.382 52.936,57.291L52.936,72.147L42.086,72.147L38.588,56.457C38.49,56.02 38.317,55.609 38.078,55.248C37.839,54.886 37.538,54.581 37.194,54.35C36.85,54.118 36.469,53.965 36.072,53.899C35.675,53.833 35.27,53.856 34.881,53.965C34.492,54.075 34.126,54.27 33.804,54.538C33.481,54.806 33.21,55.143 33.003,55.529C32.797,55.916 32.661,56.344 32.602,56.789C32.543,57.234 32.563,57.688 32.661,58.125L35.782,72.147L27.478,72.147C21.806,72.147 16.367,69.618 12.356,65.118C8.346,60.617 6.093,54.513 6.093,48.149C6.093,41.784 8.346,35.68 12.356,31.18C16.367,26.679 21.806,24.151 27.478,24.151C27.987,24.151 28.496,24.151 28.965,24.214C28.656,26.078 28.499,27.969 28.496,29.865C28.496,30.774 28.818,31.646 29.391,32.289C29.964,32.932 30.741,33.293 31.551,33.293C32.361,33.293 33.138,32.932 33.711,32.289C34.284,31.646 34.606,30.774 34.606,29.865C34.606,23.5 36.859,17.396 40.87,12.896C44.88,8.396 50.32,5.867 55.991,5.867C61.663,5.867 67.102,8.396 71.113,12.896C75.123,17.396 77.376,23.5 77.376,29.865C77.376,30.774 77.698,31.646 78.271,32.289C78.844,32.932 79.621,33.293 80.431,33.293C81.242,33.293 82.019,32.932 82.592,32.289C83.165,31.646 83.486,30.774 83.486,29.865C83.484,27.969 83.327,26.078 83.018,24.214C83.527,24.18 84.006,24.151 84.505,24.151C90.177,24.151 95.616,26.679 99.626,31.18C103.637,35.68 105.89,41.784 105.89,48.149C105.89,54.513 103.637,60.617 99.626,65.118C95.616,69.618 90.177,72.147 84.505,72.147Z" fill="#FFA101"/>
</svg>
