<svg width="40" height="40" viewBox="0 0 40 40" fill="none" xmlns="http://www.w3.org/2000/svg" xmlns:xlink="http://www.w3.org/1999/xlink">
<path d="M39.007,3.368L39.007,36.632C39.007,37.393 38.705,38.122 38.167,38.66C37.629,39.198 36.9,39.5 36.139,39.5L2.874,39.5C2.114,39.5 1.384,39.198 0.847,38.66C0.309,38.122 0.007,37.393 0.007,36.632L0.007,3.368C0.007,2.607 0.309,1.878 0.847,1.34C1.384,0.802 2.114,0.5 2.874,0.5L36.139,0.5C36.9,0.5 37.629,0.802 38.167,1.34C38.705,1.878 39.007,2.607 39.007,3.368ZM11.477,15.412L5.742,15.412L5.742,33.765L11.477,33.765L11.477,15.412ZM11.993,9.103C11.997,8.669 11.914,8.239 11.751,7.837C11.588,7.435 11.347,7.069 11.042,6.76C10.738,6.451 10.375,6.205 9.975,6.037C9.576,5.868 9.147,5.779 8.713,5.776L8.61,5.776C7.727,5.776 6.881,6.127 6.257,6.751C5.634,7.375 5.283,8.221 5.283,9.103C5.283,9.985 5.634,10.831 6.257,11.455C6.881,12.079 7.727,12.429 8.61,12.429C9.044,12.44 9.475,12.365 9.88,12.209C10.285,12.053 10.655,11.818 10.969,11.519C11.284,11.22 11.536,10.861 11.712,10.464C11.887,10.068 11.983,9.64 11.993,9.206L11.993,9.103ZM33.271,22.615C33.271,17.098 29.761,14.953 26.274,14.953C25.133,14.896 23.996,15.139 22.978,15.658C21.959,16.178 21.095,16.955 20.47,17.912L20.31,17.912L20.31,15.412L14.918,15.412L14.918,33.765L20.654,33.765L20.654,24.003C20.571,23.003 20.886,22.011 21.53,21.243C22.175,20.474 23.096,19.99 24.095,19.897L24.313,19.897C26.137,19.897 27.49,21.044 27.49,23.934L27.49,33.765L33.226,33.765L33.271,22.615Z" fill="#FFFFFF"/>
</svg>
