<svg width="386" height="322" viewBox="0 0 386 322" fill="none" xmlns="http://www.w3.org/2000/svg" xmlns:xlink="http://www.w3.org/1999/xlink">
<path d="M379.32,171.32L235.32,315.319C232.318,318.323 228.246,320.009 224,320.009C219.754,320.009 215.682,318.323 212.68,315.319C209.678,312.317 207.992,308.245 207.992,303.999C207.992,299.755 209.678,295.683 212.68,292.679L329.38,176L16,176C11.757,176 7.687,174.314 4.686,171.314C1.686,168.313 0,164.244 0,160C0,155.757 1.686,151.687 4.686,148.686C7.687,145.686 11.757,144 16,144L329.38,144L212.68,27.32C209.678,24.318 207.992,20.246 207.992,16C207.992,11.754 209.678,7.682 212.68,4.68C215.682,1.678 219.754,-0.009 224,-0.009C228.246,-0.009 232.318,1.678 235.32,4.68L379.32,148.68C380.808,150.166 381.988,151.931 382.792,153.873C383.598,155.815 384.012,157.897 384.012,160C384.012,162.103 383.598,164.185 382.792,166.127C381.988,168.07 380.808,169.834 379.32,171.32Z" fill="#FFA101"/>
</svg>
