<svg width="40" height="42" viewBox="0 0 40 42" fill="none" xmlns="http://www.w3.org/2000/svg" xmlns:xlink="http://www.w3.org/1999/xlink">
<path d="M34.867,-0.16L4.147,-0.16C1.5,-0.16 -0.653,1.993 -0.653,4.64L-0.653,35.36C-0.653,38.007 1.5,40.16 4.147,40.16L34.867,40.16C37.513,40.16 39.667,38.007 39.667,35.36L39.667,4.64C39.667,1.993 37.513,-0.16 34.867,-0.16ZM31.032,17.43C30.814,17.45 30.594,17.464 30.37,17.464C27.852,17.464 25.639,16.169 24.352,14.211C24.352,19.346 24.352,25.189 24.352,25.287C24.352,29.807 20.686,33.473 16.166,33.473C11.645,33.473 7.98,29.807 7.98,25.287C7.98,20.766 11.645,17.101 16.166,17.101C16.337,17.101 16.504,17.116 16.672,17.127L16.672,21.161C16.504,21.14 16.339,21.11 16.166,21.11C13.858,21.11 11.988,22.98 11.988,25.288C11.988,27.595 13.858,29.465 16.166,29.465C18.474,29.465 20.512,27.647 20.512,25.339C20.512,25.248 20.552,6.529 20.552,6.529L24.407,6.529C24.77,9.976 27.553,12.697 31.032,12.947L31.032,17.43Z" fill="#FFFFFF"/>
</svg>
