<svg width="44" height="46" viewBox="0 0 44 46" fill="none" xmlns="http://www.w3.org/2000/svg" xmlns:xlink="http://www.w3.org/1999/xlink">
<path d="M12.169,-0.4C4.966,-0.4 -0.894,5.465 -0.894,12.67L-0.894,31.337C-0.894,38.54 4.971,44.4 12.177,44.4L30.843,44.4C38.047,44.4 43.906,38.535 43.906,31.329L43.906,12.663C43.906,5.459 38.041,-0.4 30.836,-0.4L12.169,-0.4ZM34.573,7.066C35.603,7.066 36.44,7.903 36.44,8.933C36.44,9.963 35.603,10.8 34.573,10.8C33.543,10.8 32.706,9.963 32.706,8.933C32.706,7.903 33.543,7.066 34.573,7.066ZM21.506,10.8C27.683,10.8 32.706,15.823 32.706,22C32.706,28.176 27.683,33.2 21.506,33.2C15.33,33.2 10.306,28.176 10.306,22C10.306,15.823 15.33,10.8 21.506,10.8ZM21.506,14.533C19.526,14.533 17.627,15.32 16.227,16.72C14.826,18.12 14.04,20.019 14.04,22C14.04,23.98 14.826,25.879 16.227,27.279C17.627,28.68 19.526,29.466 21.506,29.466C23.487,29.466 25.386,28.68 26.786,27.279C28.186,25.879 28.973,23.98 28.973,22C28.973,20.019 28.186,18.12 26.786,16.72C25.386,15.32 23.487,14.533 21.506,14.533Z" fill="#FFFFFF"/>
</svg>
