<svg width="112" height="112" viewBox="0 0 112 112" fill="none" xmlns="http://www.w3.org/2000/svg" xmlns:xlink="http://www.w3.org/1999/xlink">
<path d="M31.387,62.958L6.847,37.173C2.462,32.536 0,26.259 0,19.715C0,13.171 2.462,6.894 6.847,2.257L47.962,45.439L31.387,62.958ZM71.096,51.793L62.487,60.861L102.782,103.302L94.524,112L54.229,69.559L13.934,112L5.675,103.302L62.838,43.095C58.68,33.657 61.608,20.394 70.921,10.585C82.107,-1.259 98.155,-3.479 106.706,5.527C115.315,14.595 113.207,31.497 101.962,43.28C92.649,53.088 80.057,56.173 71.096,51.793Z" fill="#FFA101"/>
</svg>
