<svg width="94" height="116" viewBox="0 0 94 116" fill="none" xmlns="http://www.w3.org/2000/svg" xmlns:xlink="http://www.w3.org/1999/xlink">
<path d="M9.264,21.805L12.942,37.235L9.264,52.599L22.955,60.918L31.333,74.404L47,70.781L62.667,74.404L71.045,60.918L84.736,52.599L81.058,37.235L84.736,21.805L71.113,13.485L62.667,0L47,3.69L31.401,0.067L22.887,13.485L9.264,21.805ZM47.068,64.34C39.842,64.34 32.912,61.513 27.802,56.48C22.692,51.447 19.822,44.621 19.822,37.504C19.822,30.386 22.692,23.56 27.802,18.528C32.912,13.495 39.842,10.667 47.068,10.667C62.054,10.667 74.246,22.677 74.246,37.437C74.246,52.331 62.054,64.34 47.068,64.34ZM46.932,57.631C35.625,57.631 26.565,48.641 26.565,37.504C26.565,26.434 35.625,17.377 46.932,17.377C58.239,17.377 67.435,26.434 67.435,37.504C67.435,48.641 58.239,57.631 46.932,57.631ZM73.088,65.011L64.37,80.039L50.201,76.886L67.435,116L76.971,101.24L94,101.24L73.088,65.011ZM20.639,65.481L29.154,80.576L43.662,77.154L26.565,116L17.029,101.24L0,101.24L20.639,65.481Z" transform="rotate(360 47 58)" fill="#FFA101"/>
</svg>
